STARTFONT 2.1
COMMENT
COMMENT Converted from OpenType font "Px437_ToshibaLCD_8x16.ttf" by "otf2bdf 3.0".
COMMENT
FONT -FreeType-Px437 ToshibaLCD 8x16-Medium-R-Normal--17-120-100-100-P-68-ISO10646-1
SIZE 12 100 100
FONTBOUNDINGBOX 9 17 0 -3
STARTPROPERTIES 19
FOUNDRY "FreeType"
FAMILY_NAME "Px437 ToshibaLCD 8x16"
WEIGHT_NAME "Medium"
SLANT "R"
SETWIDTH_NAME "Normal"
ADD_STYLE_NAME ""
PIXEL_SIZE 17
POINT_SIZE 120
RESOLUTION_X 100
RESOLUTION_Y 100
SPACING "P"
AVERAGE_WIDTH 68
CHARSET_REGISTRY "ISO10646"
CHARSET_ENCODING "1"
FONT_ASCENT 13
FONT_DESCENT 3
COPYRIGHT "Outline (vector) version (c) 2015 VileR"
_OTF_FONTFILE "Px437_ToshibaLCD_8x16.ttf"
_OTF_PSNAME "Px437_ToshibaLCD_8x16"
ENDPROPERTIES
CHARS 288
STARTCHAR 0000
ENCODING 0
SWIDTH 540 0
DWIDTH 9 0
BBX 0 0 0 0
BITMAP
ENDCHAR
STARTCHAR 0001
ENCODING 1
SWIDTH 540 0
DWIDTH 9 0
BBX 9 14 0 -1
BITMAP
3C00
4200
8180
8180
A580
A580
A580
8180
8180
A580
9980
8180
4200
3C00
ENDCHAR
STARTCHAR 0002
ENCODING 2
SWIDTH 540 0
DWIDTH 9 0
BBX 9 14 0 -1
BITMAP
3C00
7E00
FF80
FF80
DB80
DB80
DB80
FF80
FF80
DB80
E780
FF80
7E00
3C00
ENDCHAR
STARTCHAR 0003
ENCODING 3
SWIDTH 540 0
DWIDTH 9 0
BBX 7 12 0 0
BITMAP
6C
EE
FE
FE
FE
FE
7C
7C
38
38
10
10
ENDCHAR
STARTCHAR 0004
ENCODING 4
SWIDTH 540 0
DWIDTH 9 0
BBX 7 12 0 0
BITMAP
10
38
38
3C
7C
7C
FE
7C
7C
38
38
10
ENDCHAR
STARTCHAR 0005
ENCODING 5
SWIDTH 540 0
DWIDTH 9 0
BBX 7 12 0 0
BITMAP
38
38
38
30
10
D6
FE
FE
D6
10
10
38
ENDCHAR
STARTCHAR 0006
ENCODING 6
SWIDTH 540 0
DWIDTH 9 0
BBX 7 12 0 0
BITMAP
10
38
38
3C
7C
7C
FE
FE
D6
10
10
38
ENDCHAR
STARTCHAR 0007
ENCODING 7
SWIDTH 540 0
DWIDTH 9 0
BBX 4 7 2 3
BITMAP
60
70
F0
F0
F0
F0
60
ENDCHAR
STARTCHAR 0008
ENCODING 8
SWIDTH 540 0
DWIDTH 9 0
BBX 9 17 0 -3
BITMAP
FF80
FF80
FF80
FF80
E780
C780
C380
C380
C380
C380
E780
FF80
FF80
FF80
FF80
FF80
FF80
ENDCHAR
STARTCHAR 0009
ENCODING 9
SWIDTH 540 0
DWIDTH 9 0
BBX 6 10 1 1
BITMAP
78
48
4C
CC
84
84
84
CC
48
78
ENDCHAR
STARTCHAR 000A
ENCODING 10
SWIDTH 540 0
DWIDTH 9 0
BBX 9 17 0 -3
BITMAP
FF80
FF80
FF80
C380
DB80
9B80
9980
BD80
BD80
BD80
9980
DB80
C380
FF80
FF80
FF80
FF80
ENDCHAR
STARTCHAR 000B
ENCODING 11
SWIDTH 540 0
DWIDTH 9 0
BBX 7 12 0 0
BITMAP
1E
06
0A
0A
0A
10
70
88
88
88
88
70
ENDCHAR
STARTCHAR 000C
ENCODING 12
SWIDTH 540 0
DWIDTH 9 0
BBX 5 12 1 0
BITMAP
70
88
88
88
88
88
70
20
20
F8
20
20
ENDCHAR
STARTCHAR 000D
ENCODING 13
SWIDTH 540 0
DWIDTH 9 0
BBX 7 12 0 0
BITMAP
10
18
14
14
14
12
12
10
10
70
F0
E0
ENDCHAR
STARTCHAR 000E
ENCODING 14
SWIDTH 540 0
DWIDTH 9 0
BBX 7 14 0 -1
BITMAP
20
30
2C
22
32
32
2E
22
22
E2
C2
02
0E
0C
ENDCHAR
STARTCHAR 000F
ENCODING 15
SWIDTH 540 0
DWIDTH 9 0
BBX 7 14 0 -1
BITMAP
10
92
BA
44
44
44
44
C6
44
44
44
BA
92
10
ENDCHAR
STARTCHAR 0010
ENCODING 16
SWIDTH 540 0
DWIDTH 9 0
BBX 7 8 0 2
BITMAP
80
E0
E0
F8
FE
F8
E0
80
ENDCHAR
STARTCHAR 0011
ENCODING 17
SWIDTH 540 0
DWIDTH 9 0
BBX 7 8 0 2
BITMAP
02
02
0E
3E
FE
3E
0E
02
ENDCHAR
STARTCHAR 0012
ENCODING 18
SWIDTH 540 0
DWIDTH 9 0
BBX 5 14 1 -1
BITMAP
20
70
F8
A8
A8
20
20
20
20
20
A8
F8
70
20
ENDCHAR
STARTCHAR 0013
ENCODING 19
SWIDTH 540 0
DWIDTH 9 0
BBX 4 12 2 0
BITMAP
90
90
90
90
90
90
90
90
00
00
90
90
ENDCHAR
STARTCHAR 0014
ENCODING 20
SWIDTH 540 0
DWIDTH 9 0
BBX 9 12 0 0
BITMAP
7F80
9200
9200
9200
9200
9200
7200
1200
1200
1200
1200
1200
ENDCHAR
STARTCHAR 0015
ENCODING 21
SWIDTH 540 0
DWIDTH 9 0
BBX 7 14 0 -1
BITMAP
38
44
40
20
78
58
84
82
42
34
08
04
44
38
ENDCHAR
STARTCHAR 0016
ENCODING 22
SWIDTH 540 0
DWIDTH 9 0
BBX 6 5 1 0
BITMAP
FC
FC
FC
FC
FC
ENDCHAR
STARTCHAR 0017
ENCODING 23
SWIDTH 540 0
DWIDTH 9 0
BBX 9 15 0 -2
BITMAP
1000
3800
7C00
5400
5400
1000
1000
1000
1000
5400
7C00
3800
1000
0000
FF80
ENDCHAR
STARTCHAR 0018
ENCODING 24
SWIDTH 540 0
DWIDTH 9 0
BBX 5 12 1 0
BITMAP
20
70
F8
A8
A8
20
20
20
20
20
20
20
ENDCHAR
STARTCHAR 0019
ENCODING 25
SWIDTH 540 0
DWIDTH 9 0
BBX 5 12 1 0
BITMAP
20
20
20
20
20
20
20
20
A8
F8
70
20
ENDCHAR
STARTCHAR 001A
ENCODING 26
SWIDTH 540 0
DWIDTH 9 0
BBX 7 6 0 3
BITMAP
18
18
0C
FE
0C
18
ENDCHAR
STARTCHAR 001B
ENCODING 27
SWIDTH 540 0
DWIDTH 9 0
BBX 7 6 0 3
BITMAP
30
30
60
FE
60
30
ENDCHAR
STARTCHAR 001C
ENCODING 28
SWIDTH 540 0
DWIDTH 9 0
BBX 6 7 1 2
BITMAP
80
80
80
80
80
80
FC
ENDCHAR
STARTCHAR 001D
ENCODING 29
SWIDTH 540 0
DWIDTH 9 0
BBX 9 6 0 3
BITMAP
2400
2400
6600
FF80
6600
2400
ENDCHAR
STARTCHAR 001E
ENCODING 30
SWIDTH 540 0
DWIDTH 9 0
BBX 7 8 0 2
BITMAP
10
10
10
38
38
7C
7C
FE
ENDCHAR
STARTCHAR 001F
ENCODING 31
SWIDTH 540 0
DWIDTH 9 0
BBX 7 8 0 2
BITMAP
FE
FC
7C
7C
38
38
10
10
ENDCHAR
STARTCHAR 0020
ENCODING 32
SWIDTH 540 0
DWIDTH 9 0
BBX 0 0 0 0
BITMAP
ENDCHAR
STARTCHAR 0021
ENCODING 33
SWIDTH 540 0
DWIDTH 9 0
BBX 3 12 2 0
BITMAP
40
E0
E0
E0
E0
40
40
40
00
00
40
40
ENDCHAR
STARTCHAR 0022
ENCODING 34
SWIDTH 540 0
DWIDTH 9 0
BBX 4 5 2 7
BITMAP
90
90
90
90
90
ENDCHAR
STARTCHAR 0023
ENCODING 35
SWIDTH 540 0
DWIDTH 9 0
BBX 6 12 1 0
BITMAP
48
48
48
4C
FC
48
48
48
FC
48
48
48
ENDCHAR
STARTCHAR 0024
ENCODING 36
SWIDTH 540 0
DWIDTH 9 0
BBX 6 16 1 -2
BITMAP
20
20
7C
84
80
80
80
80
78
04
04
04
84
F8
20
20
ENDCHAR
STARTCHAR 0025
ENCODING 37
SWIDTH 540 0
DWIDTH 9 0
BBX 7 14 0 -1
BITMAP
60
90
90
92
F6
64
08
10
20
4C
92
12
12
0C
ENDCHAR
STARTCHAR 0026
ENCODING 38
SWIDTH 540 0
DWIDTH 9 0
BBX 7 12 0 0
BITMAP
38
44
44
6C
28
30
50
8A
8A
84
8A
72
ENDCHAR
STARTCHAR 0027
ENCODING 39
SWIDTH 540 0
DWIDTH 9 0
BBX 2 5 3 7
BITMAP
40
40
80
80
80
ENDCHAR
STARTCHAR 0028
ENCODING 40
SWIDTH 540 0
DWIDTH 9 0
BBX 4 14 2 -1
BITMAP
10
20
40
40
C0
80
80
80
80
80
40
40
20
10
ENDCHAR
STARTCHAR 0029
ENCODING 41
SWIDTH 540 0
DWIDTH 9 0
BBX 4 14 1 -1
BITMAP
80
40
20
20
30
10
10
10
10
10
20
20
40
80
ENDCHAR
STARTCHAR 002A
ENCODING 42
SWIDTH 540 0
DWIDTH 9 0
BBX 7 8 0 2
BITMAP
10
92
92
54
38
54
92
10
ENDCHAR
STARTCHAR 002B
ENCODING 43
SWIDTH 540 0
DWIDTH 9 0
BBX 7 12 0 0
BITMAP
10
10
10
10
10
10
FE
10
10
10
10
10
ENDCHAR
STARTCHAR 002C
ENCODING 44
SWIDTH 540 0
DWIDTH 9 0
BBX 2 4 2 -2
BITMAP
40
40
80
80
ENDCHAR
STARTCHAR 002D
ENCODING 45
SWIDTH 540 0
DWIDTH 9 0
BBX 6 1 1 5
BITMAP
FC
ENDCHAR
STARTCHAR 002E
ENCODING 46
SWIDTH 540 0
DWIDTH 9 0
BBX 1 2 3 0
BITMAP
80
80
ENDCHAR
STARTCHAR 002F
ENCODING 47
SWIDTH 540 0
DWIDTH 9 0
BBX 6 14 1 -1
BITMAP
04
04
08
08
18
10
10
20
20
20
40
40
80
80
ENDCHAR
STARTCHAR 0030
ENCODING 48
SWIDTH 540 0
DWIDTH 9 0
BBX 6 12 1 0
BITMAP
78
84
8C
8C
8C
94
94
A4
A4
C4
C4
78
ENDCHAR
STARTCHAR 0031
ENCODING 49
SWIDTH 540 0
DWIDTH 9 0
BBX 6 12 1 0
BITMAP
30
50
90
90
10
10
10
10
10
10
10
FC
ENDCHAR
STARTCHAR 0032
ENCODING 50
SWIDTH 540 0
DWIDTH 9 0
BBX 6 12 1 0
BITMAP
78
84
84
84
04
08
10
20
40
40
84
FC
ENDCHAR
STARTCHAR 0033
ENCODING 51
SWIDTH 540 0
DWIDTH 9 0
BBX 6 12 1 0
BITMAP
78
84
84
84
04
08
30
08
04
84
84
78
ENDCHAR
STARTCHAR 0034
ENCODING 52
SWIDTH 540 0
DWIDTH 9 0
BBX 7 12 0 0
BITMAP
0C
14
14
34
24
44
44
84
FE
04
04
1E
ENDCHAR
STARTCHAR 0035
ENCODING 53
SWIDTH 540 0
DWIDTH 9 0
BBX 6 12 1 0
BITMAP
FC
80
80
80
80
F8
84
04
04
04
84
78
ENDCHAR
STARTCHAR 0036
ENCODING 54
SWIDTH 540 0
DWIDTH 9 0
BBX 6 12 1 0
BITMAP
38
44
80
80
80
F8
84
84
84
84
84
78
ENDCHAR
STARTCHAR 0037
ENCODING 55
SWIDTH 540 0
DWIDTH 9 0
BBX 7 12 0 0
BITMAP
FE
82
84
84
04
08
08
08
10
10
10
10
ENDCHAR
STARTCHAR 0038
ENCODING 56
SWIDTH 540 0
DWIDTH 9 0
BBX 6 12 1 0
BITMAP
78
84
84
84
84
48
30
48
84
84
84
78
ENDCHAR
STARTCHAR 0039
ENCODING 57
SWIDTH 540 0
DWIDTH 9 0
BBX 6 12 1 0
BITMAP
78
84
84
84
84
84
7C
04
04
04
88
70
ENDCHAR
STARTCHAR 003A
ENCODING 58
SWIDTH 540 0
DWIDTH 9 0
BBX 1 9 3 0
BITMAP
80
80
80
00
00
00
00
80
80
ENDCHAR
STARTCHAR 003B
ENCODING 59
SWIDTH 540 0
DWIDTH 9 0
BBX 2 11 2 -2
BITMAP
40
40
40
00
00
00
00
40
40
80
80
ENDCHAR
STARTCHAR 003C
ENCODING 60
SWIDTH 540 0
DWIDTH 9 0
BBX 6 12 1 0
BITMAP
04
08
10
30
20
40
80
40
20
10
08
04
ENDCHAR
STARTCHAR 003D
ENCODING 61
SWIDTH 540 0
DWIDTH 9 0
BBX 6 6 1 3
BITMAP
FC
FC
00
00
00
FC
ENDCHAR
STARTCHAR 003E
ENCODING 62
SWIDTH 540 0
DWIDTH 9 0
BBX 6 12 1 0
BITMAP
80
40
20
30
10
08
04
08
10
20
40
80
ENDCHAR
STARTCHAR 003F
ENCODING 63
SWIDTH 540 0
DWIDTH 9 0
BBX 7 12 0 0
BITMAP
7C
82
82
82
02
04
08
10
10
00
10
10
ENDCHAR
STARTCHAR 0040
ENCODING 64
SWIDTH 540 0
DWIDTH 9 0
BBX 7 14 0 -1
BITMAP
38
44
82
9E
BE
A2
A2
A2
A2
A2
9E
80
40
3C
ENDCHAR
STARTCHAR 0041
ENCODING 65
SWIDTH 540 0
DWIDTH 9 0
BBX 7 12 0 0
BITMAP
70
10
28
28
28
28
44
44
7C
82
82
C6
ENDCHAR
STARTCHAR 0042
ENCODING 66
SWIDTH 540 0
DWIDTH 9 0
BBX 7 12 0 0
BITMAP
FC
42
42
42
42
44
78
44
42
42
42
FC
ENDCHAR
STARTCHAR 0043
ENCODING 67
SWIDTH 540 0
DWIDTH 9 0
BBX 7 12 0 0
BITMAP
3E
42
82
82
80
80
80
80
82
82
44
38
ENDCHAR
STARTCHAR 0044
ENCODING 68
SWIDTH 540 0
DWIDTH 9 0
BBX 7 12 0 0
BITMAP
F8
44
42
42
42
42
42
42
42
42
44
F8
ENDCHAR
STARTCHAR 0045
ENCODING 69
SWIDTH 540 0
DWIDTH 9 0
BBX 7 12 0 0
BITMAP
FE
42
40
40
40
44
7C
44
40
40
42
FE
ENDCHAR
STARTCHAR 0046
ENCODING 70
SWIDTH 540 0
DWIDTH 9 0
BBX 7 12 0 0
BITMAP
FE
42
40
40
40
44
7C
44
40
40
40
F0
ENDCHAR
STARTCHAR 0047
ENCODING 71
SWIDTH 540 0
DWIDTH 9 0
BBX 7 12 0 0
BITMAP
3E
42
82
82
80
80
9E
82
82
82
42
3E
ENDCHAR
STARTCHAR 0048
ENCODING 72
SWIDTH 540 0
DWIDTH 9 0
BBX 7 12 0 0
BITMAP
E6
42
42
42
42
42
7E
42
42
42
42
E6
ENDCHAR
STARTCHAR 0049
ENCODING 73
SWIDTH 540 0
DWIDTH 9 0
BBX 5 12 1 0
BITMAP
F8
20
20
20
20
20
20
20
20
20
20
F8
ENDCHAR
STARTCHAR 004A
ENCODING 74
SWIDTH 540 0
DWIDTH 9 0
BBX 7 12 0 0
BITMAP
1E
04
04
04
04
04
04
04
84
84
88
70
ENDCHAR
STARTCHAR 004B
ENCODING 75
SWIDTH 540 0
DWIDTH 9 0
BBX 7 12 0 0
BITMAP
CE
84
88
98
90
A0
D0
88
88
84
84
CE
ENDCHAR
STARTCHAR 004C
ENCODING 76
SWIDTH 540 0
DWIDTH 9 0
BBX 7 12 0 0
BITMAP
E0
40
40
40
40
40
40
40
40
42
42
FE
ENDCHAR
STARTCHAR 004D
ENCODING 77
SWIDTH 540 0
DWIDTH 9 0
BBX 7 12 0 0
BITMAP
82
C6
AA
AA
AA
92
92
82
82
82
82
C6
ENDCHAR
STARTCHAR 004E
ENCODING 78
SWIDTH 540 0
DWIDTH 9 0
BBX 7 12 0 0
BITMAP
C6
42
62
52
52
52
4A
4A
4A
46
42
E2
ENDCHAR
STARTCHAR 004F
ENCODING 79
SWIDTH 540 0
DWIDTH 9 0
BBX 7 12 0 0
BITMAP
38
44
82
82
82
82
82
82
82
82
44
38
ENDCHAR
STARTCHAR 0050
ENCODING 80
SWIDTH 540 0
DWIDTH 9 0
BBX 7 12 0 0
BITMAP
FC
42
42
42
42
42
7C
40
40
40
40
E0
ENDCHAR
STARTCHAR 0051
ENCODING 81
SWIDTH 540 0
DWIDTH 9 0
BBX 7 14 0 -2
BITMAP
38
44
82
82
82
82
82
82
A2
92
4C
38
04
02
ENDCHAR
STARTCHAR 0052
ENCODING 82
SWIDTH 540 0
DWIDTH 9 0
BBX 7 12 0 0
BITMAP
FC
42
42
42
42
42
7C
44
44
42
42
E6
ENDCHAR
STARTCHAR 0053
ENCODING 83
SWIDTH 540 0
DWIDTH 9 0
BBX 6 12 1 0
BITMAP
7C
84
80
80
80
80
78
04
04
04
84
F8
ENDCHAR
STARTCHAR 0054
ENCODING 84
SWIDTH 540 0
DWIDTH 9 0
BBX 7 12 0 0
BITMAP
FE
92
92
92
10
10
10
10
10
10
10
38
ENDCHAR
STARTCHAR 0055
ENCODING 85
SWIDTH 540 0
DWIDTH 9 0
BBX 7 12 0 0
BITMAP
E6
42
42
42
42
42
42
42
42
42
44
38
ENDCHAR
STARTCHAR 0056
ENCODING 86
SWIDTH 540 0
DWIDTH 9 0
BBX 7 12 0 0
BITMAP
C6
82
82
C6
44
44
44
28
28
28
10
10
ENDCHAR
STARTCHAR 0057
ENCODING 87
SWIDTH 540 0
DWIDTH 9 0
BBX 7 12 0 0
BITMAP
C6
82
82
92
92
92
92
54
54
54
6C
44
ENDCHAR
STARTCHAR 0058
ENCODING 88
SWIDTH 540 0
DWIDTH 9 0
BBX 7 12 0 0
BITMAP
C6
44
44
6C
28
28
10
28
28
44
44
C6
ENDCHAR
STARTCHAR 0059
ENCODING 89
SWIDTH 540 0
DWIDTH 9 0
BBX 7 12 0 0
BITMAP
C6
82
44
44
44
28
28
10
10
10
10
38
ENDCHAR
STARTCHAR 005A
ENCODING 90
SWIDTH 540 0
DWIDTH 9 0
BBX 6 12 1 0
BITMAP
FC
84
08
08
08
10
20
20
40
40
84
FC
ENDCHAR
STARTCHAR 005B
ENCODING 91
SWIDTH 540 0
DWIDTH 9 0
BBX 4 14 2 -1
BITMAP
F0
80
80
80
80
80
80
80
80
80
80
80
80
F0
ENDCHAR
STARTCHAR 005C
ENCODING 92
SWIDTH 540 0
DWIDTH 9 0
BBX 6 14 1 -1
BITMAP
80
80
40
40
60
20
20
10
10
10
08
08
04
04
ENDCHAR
STARTCHAR 005D
ENCODING 93
SWIDTH 540 0
DWIDTH 9 0
BBX 4 14 1 -1
BITMAP
F0
10
10
10
10
10
10
10
10
10
10
10
10
F0
ENDCHAR
STARTCHAR 005E
ENCODING 94
SWIDTH 540 0
DWIDTH 9 0
BBX 7 4 0 9
BITMAP
10
28
44
82
ENDCHAR
STARTCHAR 005F
ENCODING 95
SWIDTH 540 0
DWIDTH 9 0
BBX 9 1 0 -2
BITMAP
FF80
ENDCHAR
STARTCHAR 0060
ENCODING 96
SWIDTH 540 0
DWIDTH 9 0
BBX 2 4 2 9
BITMAP
80
80
40
40
ENDCHAR
STARTCHAR 0061
ENCODING 97
SWIDTH 540 0
DWIDTH 9 0
BBX 7 9 0 0
BITMAP
78
78
84
04
7C
84
84
8C
76
ENDCHAR
STARTCHAR 0062
ENCODING 98
SWIDTH 540 0
DWIDTH 9 0
BBX 7 12 0 0
BITMAP
C0
40
40
5C
5C
62
42
42
42
42
62
DC
ENDCHAR
STARTCHAR 0063
ENCODING 99
SWIDTH 540 0
DWIDTH 9 0
BBX 6 9 1 0
BITMAP
7C
7C
84
80
80
80
84
84
78
ENDCHAR
STARTCHAR 0064
ENCODING 100
SWIDTH 540 0
DWIDTH 9 0
BBX 7 12 0 0
BITMAP
0C
04
04
74
74
8C
84
84
84
84
8C
76
ENDCHAR
STARTCHAR 0065
ENCODING 101
SWIDTH 540 0
DWIDTH 9 0
BBX 6 9 1 0
BITMAP
78
78
84
84
FC
80
80
84
78
ENDCHAR
STARTCHAR 0066
ENCODING 102
SWIDTH 540 0
DWIDTH 9 0
BBX 6 12 1 0
BITMAP
1C
20
20
20
20
FC
20
20
20
20
20
F8
ENDCHAR
STARTCHAR 0067
ENCODING 103
SWIDTH 540 0
DWIDTH 9 0
BBX 7 11 0 -2
BITMAP
76
76
8C
84
84
84
8C
74
04
84
78
ENDCHAR
STARTCHAR 0068
ENCODING 104
SWIDTH 540 0
DWIDTH 9 0
BBX 7 12 0 0
BITMAP
C0
40
40
5C
5C
62
42
42
42
42
42
C6
ENDCHAR
STARTCHAR 0069
ENCODING 105
SWIDTH 540 0
DWIDTH 9 0
BBX 6 12 1 0
BITMAP
30
00
00
70
70
10
10
10
10
10
10
FC
ENDCHAR
STARTCHAR 006A
ENCODING 106
SWIDTH 540 0
DWIDTH 9 0
BBX 6 14 0 -2
BITMAP
0C
00
00
1C
1C
04
04
04
04
04
04
84
88
70
ENDCHAR
STARTCHAR 006B
ENCODING 107
SWIDTH 540 0
DWIDTH 9 0
BBX 7 12 0 0
BITMAP
C0
40
40
4E
4E
44
48
50
68
44
42
C6
ENDCHAR
STARTCHAR 006C
ENCODING 108
SWIDTH 540 0
DWIDTH 9 0
BBX 6 12 1 0
BITMAP
70
10
10
10
10
10
10
10
10
10
10
FC
ENDCHAR
STARTCHAR 006D
ENCODING 109
SWIDTH 540 0
DWIDTH 9 0
BBX 7 9 0 0
BITMAP
AC
AC
D2
92
92
92
92
92
D6
ENDCHAR
STARTCHAR 006E
ENCODING 110
SWIDTH 540 0
DWIDTH 9 0
BBX 7 9 0 0
BITMAP
DC
DC
62
42
42
42
42
42
E6
ENDCHAR
STARTCHAR 006F
ENCODING 111
SWIDTH 540 0
DWIDTH 9 0
BBX 6 9 1 0
BITMAP
78
78
84
84
84
84
84
84
78
ENDCHAR
STARTCHAR 0070
ENCODING 112
SWIDTH 540 0
DWIDTH 9 0
BBX 7 11 0 -2
BITMAP
DC
DC
62
42
42
42
62
5C
40
40
E0
ENDCHAR
STARTCHAR 0071
ENCODING 113
SWIDTH 540 0
DWIDTH 9 0
BBX 7 11 0 -2
BITMAP
76
76
8C
84
84
84
8C
74
04
04
0E
ENDCHAR
STARTCHAR 0072
ENCODING 114
SWIDTH 540 0
DWIDTH 9 0
BBX 6 9 1 0
BITMAP
DC
DC
64
40
40
40
40
40
E0
ENDCHAR
STARTCHAR 0073
ENCODING 115
SWIDTH 540 0
DWIDTH 9 0
BBX 6 9 1 0
BITMAP
7C
7C
84
80
60
18
04
84
F8
ENDCHAR
STARTCHAR 0074
ENCODING 116
SWIDTH 540 0
DWIDTH 9 0
BBX 6 11 0 0
BITMAP
20
20
3C
FC
20
20
20
20
20
20
1C
ENDCHAR
STARTCHAR 0075
ENCODING 117
SWIDTH 540 0
DWIDTH 9 0
BBX 7 9 0 0
BITMAP
C6
C6
42
42
42
42
42
46
3A
ENDCHAR
STARTCHAR 0076
ENCODING 118
SWIDTH 540 0
DWIDTH 9 0
BBX 7 9 0 0
BITMAP
C6
C6
82
82
44
44
28
28
10
ENDCHAR
STARTCHAR 0077
ENCODING 119
SWIDTH 540 0
DWIDTH 9 0
BBX 7 9 0 0
BITMAP
C6
C6
82
92
92
92
54
6C
44
ENDCHAR
STARTCHAR 0078
ENCODING 120
SWIDTH 540 0
DWIDTH 9 0
BBX 7 9 0 0
BITMAP
EE
EE
44
28
10
10
28
44
EE
ENDCHAR
STARTCHAR 0079
ENCODING 121
SWIDTH 540 0
DWIDTH 9 0
BBX 7 11 0 -2
BITMAP
C6
C6
82
82
44
44
28
28
10
10
60
ENDCHAR
STARTCHAR 007A
ENCODING 122
SWIDTH 540 0
DWIDTH 9 0
BBX 6 9 1 0
BITMAP
FC
FC
84
08
10
20
40
84
FC
ENDCHAR
STARTCHAR 007B
ENCODING 123
SWIDTH 540 0
DWIDTH 9 0
BBX 5 14 1 -1
BITMAP
18
20
20
20
20
20
20
C0
20
20
20
20
20
18
ENDCHAR
STARTCHAR 007C
ENCODING 124
SWIDTH 540 0
DWIDTH 9 0
BBX 1 12 3 0
BITMAP
80
80
80
80
80
80
00
80
80
80
80
80
ENDCHAR
STARTCHAR 007D
ENCODING 125
SWIDTH 540 0
DWIDTH 9 0
BBX 5 14 1 -1
BITMAP
C0
20
20
20
20
20
20
18
20
20
20
20
20
C0
ENDCHAR
STARTCHAR 007E
ENCODING 126
SWIDTH 540 0
DWIDTH 9 0
BBX 7 4 0 9
BITMAP
60
92
92
0C
ENDCHAR
STARTCHAR 007F
ENCODING 127
SWIDTH 540 0
DWIDTH 9 0
BBX 7 10 0 0
BITMAP
10
10
10
28
28
44
44
82
82
FE
ENDCHAR
STARTCHAR 00A0
ENCODING 160
SWIDTH 540 0
DWIDTH 9 0
BBX 0 0 0 0
BITMAP
ENDCHAR
STARTCHAR 00A1
ENCODING 161
SWIDTH 540 0
DWIDTH 9 0
BBX 3 12 2 -2
BITMAP
40
40
40
00
00
40
40
40
E0
E0
E0
40
ENDCHAR
STARTCHAR 00A2
ENCODING 162
SWIDTH 540 0
DWIDTH 9 0
BBX 6 13 1 -2
BITMAP
20
20
3C
7C
84
80
80
80
84
84
78
20
20
ENDCHAR
STARTCHAR 00A3
ENCODING 163
SWIDTH 540 0
DWIDTH 9 0
BBX 7 12 0 0
BITMAP
1C
22
20
20
20
7C
20
20
20
20
62
9C
ENDCHAR
STARTCHAR 00A5
ENCODING 165
SWIDTH 540 0
DWIDTH 9 0
BBX 7 12 0 0
BITMAP
C6
82
44
44
44
28
EE
10
FE
10
10
38
ENDCHAR
STARTCHAR 00A7
ENCODING 167
SWIDTH 540 0
DWIDTH 9 0
BBX 7 14 0 -1
BITMAP
38
44
40
20
78
58
84
82
42
34
08
04
44
38
ENDCHAR
STARTCHAR 00AA
ENCODING 170
SWIDTH 540 0
DWIDTH 9 0
BBX 7 11 0 -2
BITMAP
78
78
84
04
7C
84
84
8C
76
00
FE
ENDCHAR
STARTCHAR 00AB
ENCODING 171
SWIDTH 540 0
DWIDTH 9 0
BBX 7 8 0 2
BITMAP
12
36
24
48
90
48
24
12
ENDCHAR
STARTCHAR 00AC
ENCODING 172
SWIDTH 540 0
DWIDTH 9 0
BBX 6 7 1 2
BITMAP
FC
FC
04
04
04
04
04
ENDCHAR
STARTCHAR 00B0
ENCODING 176
SWIDTH 540 0
DWIDTH 9 0
BBX 4 4 2 9
BITMAP
60
90
90
60
ENDCHAR
STARTCHAR 00B1
ENCODING 177
SWIDTH 540 0
DWIDTH 9 0
BBX 7 11 0 1
BITMAP
10
10
10
1E
FE
10
10
10
00
00
FE
ENDCHAR
STARTCHAR 00B2
ENCODING 178
SWIDTH 540 0
DWIDTH 9 0
BBX 4 5 1 9
BITMAP
60
90
20
40
F0
ENDCHAR
STARTCHAR 00B5
ENCODING 181
SWIDTH 540 0
DWIDTH 9 0
BBX 7 11 0 -2
BITMAP
CC
CC
44
44
44
44
44
64
5A
40
40
ENDCHAR
STARTCHAR 00B6
ENCODING 182
SWIDTH 540 0
DWIDTH 9 0
BBX 9 12 0 0
BITMAP
7F80
9200
9200
9200
9200
9200
7200
1200
1200
1200
1200
1200
ENDCHAR
STARTCHAR 00B7
ENCODING 183
SWIDTH 540 0
DWIDTH 9 0
BBX 3 2 2 5
BITMAP
E0
E0
ENDCHAR
STARTCHAR 00BA
ENCODING 186
SWIDTH 540 0
DWIDTH 9 0
BBX 6 11 1 -2
BITMAP
78
78
84
84
84
84
84
84
78
00
FC
ENDCHAR
STARTCHAR 00BB
ENCODING 187
SWIDTH 540 0
DWIDTH 9 0
BBX 7 8 0 2
BITMAP
90
D8
48
24
12
24
48
90
ENDCHAR
STARTCHAR 00BC
ENCODING 188
SWIDTH 540 0
DWIDTH 9 0
BBX 7 16 0 -2
BITMAP
C0
40
40
40
42
66
E4
08
10
24
4C
94
24
3E
04
0E
ENDCHAR
STARTCHAR 00BD
ENCODING 189
SWIDTH 540 0
DWIDTH 9 0
BBX 7 16 0 -2
BITMAP
C0
40
40
42
44
6C
E8
10
20
4C
92
12
04
08
10
1E
ENDCHAR
STARTCHAR 00BF
ENCODING 191
SWIDTH 540 0
DWIDTH 9 0
BBX 7 12 0 -2
BITMAP
10
10
10
00
10
10
20
40
80
82
82
7C
ENDCHAR
STARTCHAR 00C4
ENCODING 196
SWIDTH 540 0
DWIDTH 9 0
BBX 7 14 0 0
BITMAP
6C
00
70
10
28
28
28
28
44
44
7C
82
82
C6
ENDCHAR
STARTCHAR 00C5
ENCODING 197
SWIDTH 540 0
DWIDTH 9 0
BBX 7 14 0 0
BITMAP
30
48
30
00
70
68
28
28
44
44
7C
82
82
C6
ENDCHAR
STARTCHAR 00C6
ENCODING 198
SWIDTH 540 0
DWIDTH 9 0
BBX 7 12 0 0
BITMAP
3E
1A
28
28
28
28
4E
48
78
88
8A
CE
ENDCHAR
STARTCHAR 00C7
ENCODING 199
SWIDTH 540 0
DWIDTH 9 0
BBX 7 14 0 -2
BITMAP
3E
42
80
80
80
80
80
82
82
44
38
08
44
38
ENDCHAR
STARTCHAR 00C9
ENCODING 201
SWIDTH 540 0
DWIDTH 9 0
BBX 7 14 0 0
BITMAP
0C
30
00
FE
42
42
40
44
7C
44
40
40
42
FE
ENDCHAR
STARTCHAR 00D1
ENCODING 209
SWIDTH 540 0
DWIDTH 9 0
BBX 7 14 0 0
BITMAP
32
4C
00
C6
42
62
62
52
52
4A
4A
46
42
E2
ENDCHAR
STARTCHAR 00D6
ENCODING 214
SWIDTH 540 0
DWIDTH 9 0
BBX 7 14 0 0
BITMAP
6C
00
38
44
82
82
82
82
82
82
82
82
44
38
ENDCHAR
STARTCHAR 00DC
ENCODING 220
SWIDTH 540 0
DWIDTH 9 0
BBX 7 14 0 0
BITMAP
6C
00
E6
42
42
42
42
42
42
42
42
42
44
38
ENDCHAR
STARTCHAR 00DF
ENCODING 223
SWIDTH 540 0
DWIDTH 9 0
BBX 6 14 1 -2
BITMAP
70
88
88
88
88
B0
88
84
84
84
84
B8
80
80
ENDCHAR
STARTCHAR 00E0
ENCODING 224
SWIDTH 540 0
DWIDTH 9 0
BBX 7 13 0 0
BITMAP
60
18
00
00
78
78
84
04
7C
84
84
8C
76
ENDCHAR
STARTCHAR 00E1
ENCODING 225
SWIDTH 540 0
DWIDTH 9 0
BBX 7 13 0 0
BITMAP
18
60
00
00
78
78
84
04
7C
84
84
8C
76
ENDCHAR
STARTCHAR 00E2
ENCODING 226
SWIDTH 540 0
DWIDTH 9 0
BBX 7 13 0 0
BITMAP
10
28
44
00
78
78
84
04
7C
84
84
8C
76
ENDCHAR
STARTCHAR 00E4
ENCODING 228
SWIDTH 540 0
DWIDTH 9 0
BBX 7 12 0 0
BITMAP
6C
00
00
78
78
84
04
7C
84
84
8C
76
ENDCHAR
STARTCHAR 00E5
ENCODING 229
SWIDTH 540 0
DWIDTH 9 0
BBX 7 13 0 0
BITMAP
30
48
30
00
78
78
84
04
7C
84
84
8C
76
ENDCHAR
STARTCHAR 00E6
ENCODING 230
SWIDTH 540 0
DWIDTH 9 0
BBX 7 9 0 0
BITMAP
6C
6C
92
12
7E
90
90
92
6C
ENDCHAR
STARTCHAR 00E7
ENCODING 231
SWIDTH 540 0
DWIDTH 9 0
BBX 6 11 1 -2
BITMAP
7C
7C
84
80
80
84
84
78
10
08
70
ENDCHAR
STARTCHAR 00E8
ENCODING 232
SWIDTH 540 0
DWIDTH 9 0
BBX 6 13 1 0
BITMAP
60
18
00
00
78
78
84
84
FC
80
80
84
78
ENDCHAR
STARTCHAR 00E9
ENCODING 233
SWIDTH 540 0
DWIDTH 9 0
BBX 6 13 1 0
BITMAP
18
60
00
00
78
78
84
84
FC
80
80
84
78
ENDCHAR
STARTCHAR 00EA
ENCODING 234
SWIDTH 540 0
DWIDTH 9 0
BBX 6 13 1 0
BITMAP
20
50
88
00
78
78
84
84
FC
80
80
84
78
ENDCHAR
STARTCHAR 00EB
ENCODING 235
SWIDTH 540 0
DWIDTH 9 0
BBX 6 12 1 0
BITMAP
D8
00
00
78
78
84
84
FC
80
80
84
78
ENDCHAR
STARTCHAR 00EC
ENCODING 236
SWIDTH 540 0
DWIDTH 9 0
BBX 6 13 1 0
BITMAP
60
18
00
00
70
70
10
10
10
10
10
10
FC
ENDCHAR
STARTCHAR 00ED
ENCODING 237
SWIDTH 540 0
DWIDTH 9 0
BBX 6 13 1 0
BITMAP
30
C0
00
00
70
70
10
10
10
10
10
10
FC
ENDCHAR
STARTCHAR 00EE
ENCODING 238
SWIDTH 540 0
DWIDTH 9 0
BBX 6 13 1 0
BITMAP
20
50
88
00
70
70
10
10
10
10
10
10
FC
ENDCHAR
STARTCHAR 00EF
ENCODING 239
SWIDTH 540 0
DWIDTH 9 0
BBX 6 12 1 0
BITMAP
D8
00
00
70
70
10
10
10
10
10
10
FC
ENDCHAR
STARTCHAR 00F1
ENCODING 241
SWIDTH 540 0
DWIDTH 9 0
BBX 7 13 0 0
BITMAP
32
4C
00
00
DC
DC
62
42
42
42
42
42
E6
ENDCHAR
STARTCHAR 00F2
ENCODING 242
SWIDTH 540 0
DWIDTH 9 0
BBX 6 13 1 0
BITMAP
60
18
00
00
78
78
84
84
84
84
84
84
78
ENDCHAR
STARTCHAR 00F3
ENCODING 243
SWIDTH 540 0
DWIDTH 9 0
BBX 6 13 1 0
BITMAP
30
C0
00
00
78
78
84
84
84
84
84
84
78
ENDCHAR
STARTCHAR 00F4
ENCODING 244
SWIDTH 540 0
DWIDTH 9 0
BBX 6 13 1 0
BITMAP
20
50
88
00
78
78
84
84
84
84
84
84
78
ENDCHAR
STARTCHAR 00F6
ENCODING 246
SWIDTH 540 0
DWIDTH 9 0
BBX 6 12 1 0
BITMAP
D8
00
00
78
78
84
84
84
84
84
84
78
ENDCHAR
STARTCHAR 00F7
ENCODING 247
SWIDTH 540 0
DWIDTH 9 0
BBX 7 12 0 0
BITMAP
10
10
00
00
00
00
FE
00
00
00
10
10
ENDCHAR
STARTCHAR 00F9
ENCODING 249
SWIDTH 540 0
DWIDTH 9 0
BBX 7 13 0 0
BITMAP
30
0C
00
00
C6
C6
42
42
42
42
42
46
3A
ENDCHAR
STARTCHAR 00FA
ENCODING 250
SWIDTH 540 0
DWIDTH 9 0
BBX 7 13 0 0
BITMAP
18
60
00
00
C6
C6
42
42
42
42
42
46
3A
ENDCHAR
STARTCHAR 00FB
ENCODING 251
SWIDTH 540 0
DWIDTH 9 0
BBX 7 13 0 0
BITMAP
10
28
44
00
C6
C6
42
42
42
42
42
46
3A
ENDCHAR
STARTCHAR 00FC
ENCODING 252
SWIDTH 540 0
DWIDTH 9 0
BBX 7 12 0 0
BITMAP
6C
00
00
C6
C6
42
42
42
42
42
46
3A
ENDCHAR
STARTCHAR 00FF
ENCODING 255
SWIDTH 540 0
DWIDTH 9 0
BBX 7 14 0 -2
BITMAP
6C
00
00
C6
C6
82
82
44
44
28
28
10
10
60
ENDCHAR
STARTCHAR 0192
ENCODING 402
SWIDTH 540 0
DWIDTH 9 0
BBX 7 14 0 -2
BITMAP
0E
10
10
10
10
7E
10
10
10
10
10
10
10
E0
ENDCHAR
STARTCHAR 0393
ENCODING 915
SWIDTH 540 0
DWIDTH 9 0
BBX 7 12 0 0
BITMAP
FE
42
42
42
40
40
40
40
40
40
40
E0
ENDCHAR
STARTCHAR 0398
ENCODING 920
SWIDTH 540 0
DWIDTH 9 0
BBX 6 12 1 0
BITMAP
30
48
84
84
84
84
FC
84
84
84
48
30
ENDCHAR
STARTCHAR 03A3
ENCODING 931
SWIDTH 540 0
DWIDTH 9 0
BBX 7 12 0 0
BITMAP
FE
42
20
20
20
10
08
10
20
20
42
FE
ENDCHAR
STARTCHAR 03A6
ENCODING 934
SWIDTH 540 0
DWIDTH 9 0
BBX 5 12 1 0
BITMAP
F8
20
20
30
70
88
88
88
70
20
20
F8
ENDCHAR
STARTCHAR 03A9
ENCODING 937
SWIDTH 540 0
DWIDTH 9 0
BBX 7 12 0 0
BITMAP
38
44
82
82
82
82
82
82
44
44
28
EE
ENDCHAR
STARTCHAR 03B1
ENCODING 945
SWIDTH 540 0
DWIDTH 9 0
BBX 7 9 0 0
BITMAP
62
62
92
94
88
88
94
92
62
ENDCHAR
STARTCHAR 03B4
ENCODING 948
SWIDTH 540 0
DWIDTH 9 0
BBX 6 12 1 0
BITMAP
78
84
40
60
20
78
84
84
84
84
84
78
ENDCHAR
STARTCHAR 03B5
ENCODING 949
SWIDTH 540 0
DWIDTH 9 0
BBX 6 12 1 0
BITMAP
3C
40
80
80
80
80
FC
80
80
80
40
3C
ENDCHAR
STARTCHAR 03C0
ENCODING 960
SWIDTH 540 0
DWIDTH 9 0
BBX 7 9 0 0
BITMAP
7E
7E
A4
24
24
24
24
24
24
ENDCHAR
STARTCHAR 03C3
ENCODING 963
SWIDTH 540 0
DWIDTH 9 0
BBX 7 9 0 0
BITMAP
7E
7E
88
84
84
84
84
84
78
ENDCHAR
STARTCHAR 03C4
ENCODING 964
SWIDTH 540 0
DWIDTH 9 0
BBX 7 11 0 -2
BITMAP
66
66
98
10
10
10
10
10
10
10
10
ENDCHAR
STARTCHAR 03C6
ENCODING 966
SWIDTH 540 0
DWIDTH 9 0
BBX 7 13 0 -1
BITMAP
02
02
3C
7C
44
8A
92
92
A2
44
78
80
80
ENDCHAR
STARTCHAR 2022
ENCODING 8226
SWIDTH 540 0
DWIDTH 9 0
BBX 4 7 2 3
BITMAP
60
70
F0
F0
F0
F0
60
ENDCHAR
STARTCHAR 203C
ENCODING 8252
SWIDTH 540 0
DWIDTH 9 0
BBX 4 12 2 0
BITMAP
90
90
90
90
90
90
90
90
00
00
90
90
ENDCHAR
STARTCHAR 207F
ENCODING 8319
SWIDTH 540 0
DWIDTH 9 0
BBX 4 5 1 9
BITMAP
B0
D0
90
90
90
ENDCHAR
STARTCHAR 20A7
ENCODING 8359
SWIDTH 540 0
DWIDTH 9 0
BBX 7 12 0 0
BITMAP
E0
90
94
94
94
9E
94
E4
84
84
84
86
ENDCHAR
STARTCHAR 2190
ENCODING 8592
SWIDTH 540 0
DWIDTH 9 0
BBX 7 6 0 3
BITMAP
30
30
60
FE
60
30
ENDCHAR
STARTCHAR 2191
ENCODING 8593
SWIDTH 540 0
DWIDTH 9 0
BBX 5 12 1 0
BITMAP
20
70
F8
A8
A8
20
20
20
20
20
20
20
ENDCHAR
STARTCHAR 2192
ENCODING 8594
SWIDTH 540 0
DWIDTH 9 0
BBX 7 6 0 3
BITMAP
18
18
0C
FE
0C
18
ENDCHAR
STARTCHAR 2193
ENCODING 8595
SWIDTH 540 0
DWIDTH 9 0
BBX 5 12 1 0
BITMAP
20
20
20
20
20
20
20
20
A8
F8
70
20
ENDCHAR
STARTCHAR 2194
ENCODING 8596
SWIDTH 540 0
DWIDTH 9 0
BBX 9 6 0 3
BITMAP
2400
2400
6600
FF80
6600
2400
ENDCHAR
STARTCHAR 2195
ENCODING 8597
SWIDTH 540 0
DWIDTH 9 0
BBX 5 14 1 -1
BITMAP
20
70
F8
A8
A8
20
20
20
20
20
A8
F8
70
20
ENDCHAR
STARTCHAR 21A8
ENCODING 8616
SWIDTH 540 0
DWIDTH 9 0
BBX 9 15 0 -2
BITMAP
1000
3800
7C00
5400
5400
1000
1000
1000
1000
5400
7C00
3800
1000
0000
FF80
ENDCHAR
STARTCHAR 2219
ENCODING 8729
SWIDTH 540 0
DWIDTH 9 0
BBX 3 5 2 4
BITMAP
E0
E0
E0
E0
E0
ENDCHAR
STARTCHAR 221A
ENCODING 8730
SWIDTH 540 0
DWIDTH 9 0
BBX 9 13 0 0
BITMAP
0F80
0800
0800
0800
0800
0800
1000
9000
9000
5000
5000
2000
2000
ENDCHAR
STARTCHAR 221E
ENCODING 8734
SWIDTH 540 0
DWIDTH 9 0
BBX 7 7 0 2
BITMAP
44
44
AA
92
92
AA
44
ENDCHAR
STARTCHAR 221F
ENCODING 8735
SWIDTH 540 0
DWIDTH 9 0
BBX 6 7 1 2
BITMAP
80
80
80
80
80
80
FC
ENDCHAR
STARTCHAR 2229
ENCODING 8745
SWIDTH 540 0
DWIDTH 9 0
BBX 6 12 1 0
BITMAP
30
48
84
84
84
84
84
84
84
84
84
84
ENDCHAR
STARTCHAR 2248
ENCODING 8776
SWIDTH 540 0
DWIDTH 9 0
BBX 7 8 0 2
BITMAP
62
F2
92
8C
00
62
92
8C
ENDCHAR
STARTCHAR 2261
ENCODING 8801
SWIDTH 540 0
DWIDTH 9 0
BBX 6 8 1 2
BITMAP
FC
FC
00
00
FC
00
00
FC
ENDCHAR
STARTCHAR 2264
ENCODING 8804
SWIDTH 540 0
DWIDTH 9 0
BBX 7 11 0 1
BITMAP
06
18
60
E0
80
60
18
06
00
00
FE
ENDCHAR
STARTCHAR 2265
ENCODING 8805
SWIDTH 540 0
DWIDTH 9 0
BBX 7 11 0 1
BITMAP
C0
30
0C
0E
02
0C
30
C0
00
00
FE
ENDCHAR
STARTCHAR 2302
ENCODING 8962
SWIDTH 540 0
DWIDTH 9 0
BBX 7 10 0 0
BITMAP
10
10
10
28
28
44
44
82
82
FE
ENDCHAR
STARTCHAR 2310
ENCODING 8976
SWIDTH 540 0
DWIDTH 9 0
BBX 6 7 1 2
BITMAP
FC
FC
80
80
80
80
80
ENDCHAR
STARTCHAR 2320
ENCODING 8992
SWIDTH 540 0
DWIDTH 9 0
BBX 4 16 3 -3
BITMAP
30
50
40
40
C0
80
80
80
80
80
80
80
80
80
80
80
ENDCHAR
STARTCHAR 2321
ENCODING 8993
SWIDTH 540 0
DWIDTH 9 0
BBX 4 16 0 -2
BITMAP
10
10
10
10
10
10
10
10
10
10
10
10
20
20
A0
C0
ENDCHAR
STARTCHAR 2500
ENCODING 9472
SWIDTH 540 0
DWIDTH 9 0
BBX 9 1 0 4
BITMAP
FF80
ENDCHAR
STARTCHAR 2502
ENCODING 9474
SWIDTH 540 0
DWIDTH 9 0
BBX 1 17 3 -3
BITMAP
80
80
80
80
80
80
80
80
80
80
80
80
80
80
80
80
80
ENDCHAR
STARTCHAR 250C
ENCODING 9484
SWIDTH 540 0
DWIDTH 9 0
BBX 6 8 3 -3
BITMAP
FC
80
80
80
80
80
80
80
ENDCHAR
STARTCHAR 2510
ENCODING 9488
SWIDTH 540 0
DWIDTH 9 0
BBX 4 8 0 -3
BITMAP
F0
10
10
10
10
10
10
10
ENDCHAR
STARTCHAR 2514
ENCODING 9492
SWIDTH 540 0
DWIDTH 9 0
BBX 6 10 3 4
BITMAP
80
80
80
80
80
80
80
80
80
FC
ENDCHAR
STARTCHAR 2518
ENCODING 9496
SWIDTH 540 0
DWIDTH 9 0
BBX 4 10 0 4
BITMAP
10
10
10
10
10
10
10
10
10
F0
ENDCHAR
STARTCHAR 251C
ENCODING 9500
SWIDTH 540 0
DWIDTH 9 0
BBX 6 17 3 -3
BITMAP
80
80
80
80
80
80
80
80
80
FC
80
80
80
80
80
80
80
ENDCHAR
STARTCHAR 2524
ENCODING 9508
SWIDTH 540 0
DWIDTH 9 0
BBX 4 17 0 -3
BITMAP
10
10
10
10
10
10
10
10
10
F0
10
10
10
10
10
10
10
ENDCHAR
STARTCHAR 252C
ENCODING 9516
SWIDTH 540 0
DWIDTH 9 0
BBX 9 8 0 -3
BITMAP
FF80
1000
1000
1000
1000
1000
1000
1000
ENDCHAR
STARTCHAR 2534
ENCODING 9524
SWIDTH 540 0
DWIDTH 9 0
BBX 9 10 0 4
BITMAP
1000
1000
1000
1000
1000
1000
1000
1000
1000
FF80
ENDCHAR
STARTCHAR 253C
ENCODING 9532
SWIDTH 540 0
DWIDTH 9 0
BBX 9 17 0 -3
BITMAP
1000
1000
1000
1000
1000
1000
1000
1000
1000
FF80
1000
1000
1000
1000
1000
1000
1000
ENDCHAR
STARTCHAR 2550
ENCODING 9552
SWIDTH 540 0
DWIDTH 9 0
BBX 9 5 0 4
BITMAP
FF80
FF80
0000
0000
FF80
ENDCHAR
STARTCHAR 2551
ENCODING 9553
SWIDTH 540 0
DWIDTH 9 0
BBX 3 17 3 -3
BITMAP
A0
A0
A0
A0
A0
A0
A0
A0
A0
A0
A0
A0
A0
A0
A0
A0
A0
ENDCHAR
STARTCHAR 2552
ENCODING 9554
SWIDTH 540 0
DWIDTH 9 0
BBX 6 12 3 -3
BITMAP
FC
FC
80
80
FC
80
80
80
80
80
80
80
ENDCHAR
STARTCHAR 2553
ENCODING 9555
SWIDTH 540 0
DWIDTH 9 0
BBX 6 8 3 -3
BITMAP
FC
A0
A0
A0
A0
A0
A0
A0
ENDCHAR
STARTCHAR 2554
ENCODING 9556
SWIDTH 540 0
DWIDTH 9 0
BBX 6 12 3 -3
BITMAP
FC
FC
80
80
BC
A0
A0
A0
A0
A0
A0
A0
ENDCHAR
STARTCHAR 2555
ENCODING 9557
SWIDTH 540 0
DWIDTH 9 0
BBX 4 12 0 -3
BITMAP
F0
F0
10
10
F0
10
10
10
10
10
10
10
ENDCHAR
STARTCHAR 2556
ENCODING 9558
SWIDTH 540 0
DWIDTH 9 0
BBX 6 8 0 -3
BITMAP
FC
14
14
14
14
14
14
14
ENDCHAR
STARTCHAR 2557
ENCODING 9559
SWIDTH 540 0
DWIDTH 9 0
BBX 6 12 0 -3
BITMAP
FC
FC
04
04
F4
14
14
14
14
14
14
14
ENDCHAR
STARTCHAR 2558
ENCODING 9560
SWIDTH 540 0
DWIDTH 9 0
BBX 6 10 3 4
BITMAP
80
80
80
80
80
FC
FC
80
80
FC
ENDCHAR
STARTCHAR 2559
ENCODING 9561
SWIDTH 540 0
DWIDTH 9 0
BBX 6 10 3 4
BITMAP
A0
A0
A0
A0
A0
A0
A0
A0
A0
FC
ENDCHAR
STARTCHAR 255A
ENCODING 9562
SWIDTH 540 0
DWIDTH 9 0
BBX 6 10 3 4
BITMAP
A0
A0
A0
A0
A0
BC
BC
80
80
FC
ENDCHAR
STARTCHAR 255B
ENCODING 9563
SWIDTH 540 0
DWIDTH 9 0
BBX 4 10 0 4
BITMAP
10
10
10
10
10
10
F0
10
10
F0
ENDCHAR
STARTCHAR 255C
ENCODING 9564
SWIDTH 540 0
DWIDTH 9 0
BBX 6 10 0 4
BITMAP
14
14
14
14
14
14
14
14
14
FC
ENDCHAR
STARTCHAR 255D
ENCODING 9565
SWIDTH 540 0
DWIDTH 9 0
BBX 6 10 0 4
BITMAP
14
14
14
14
14
14
F4
04
04
FC
ENDCHAR
STARTCHAR 255E
ENCODING 9566
SWIDTH 540 0
DWIDTH 9 0
BBX 6 17 3 -3
BITMAP
80
80
80
80
80
FC
FC
80
80
FC
80
80
80
80
80
80
80
ENDCHAR
STARTCHAR 255F
ENCODING 9567
SWIDTH 540 0
DWIDTH 9 0
BBX 6 17 3 -3
BITMAP
A0
A0
A0
A0
A0
A0
A0
A0
A0
BC
A0
A0
A0
A0
A0
A0
A0
ENDCHAR
STARTCHAR 2560
ENCODING 9568
SWIDTH 540 0
DWIDTH 9 0
BBX 6 17 3 -3
BITMAP
A0
A0
A0
A0
A0
BC
BC
80
80
BC
A0
A0
A0
A0
A0
A0
A0
ENDCHAR
STARTCHAR 2561
ENCODING 9569
SWIDTH 540 0
DWIDTH 9 0
BBX 4 17 0 -3
BITMAP
10
10
10
10
10
10
F0
10
10
F0
10
10
10
10
10
10
10
ENDCHAR
STARTCHAR 2562
ENCODING 9570
SWIDTH 540 0
DWIDTH 9 0
BBX 6 17 0 -3
BITMAP
14
14
14
14
14
14
14
14
14
F4
14
14
14
14
14
14
14
ENDCHAR
STARTCHAR 2563
ENCODING 9571
SWIDTH 540 0
DWIDTH 9 0
BBX 6 17 0 -3
BITMAP
14
14
14
14
14
14
F4
04
04
F4
14
14
14
14
14
14
14
ENDCHAR
STARTCHAR 2564
ENCODING 9572
SWIDTH 540 0
DWIDTH 9 0
BBX 9 12 0 -3
BITMAP
FF80
FF80
0000
0000
FF80
1000
1000
1000
1000
1000
1000
1000
ENDCHAR
STARTCHAR 2565
ENCODING 9573
SWIDTH 540 0
DWIDTH 9 0
BBX 9 8 0 -3
BITMAP
FF80
1400
1400
1400
1400
1400
1400
1400
ENDCHAR
STARTCHAR 2566
ENCODING 9574
SWIDTH 540 0
DWIDTH 9 0
BBX 9 12 0 -3
BITMAP
FF80
FF80
0000
0000
F780
1400
1400
1400
1400
1400
1400
1400
ENDCHAR
STARTCHAR 2567
ENCODING 9575
SWIDTH 540 0
DWIDTH 9 0
BBX 9 10 0 4
BITMAP
1000
1000
1000
1000
1000
1F80
FF80
0000
0000
FF80
ENDCHAR
STARTCHAR 2568
ENCODING 9576
SWIDTH 540 0
DWIDTH 9 0
BBX 9 10 0 4
BITMAP
1400
1400
1400
1400
1400
1400
1400
1400
1400
FF80
ENDCHAR
STARTCHAR 2569
ENCODING 9577
SWIDTH 540 0
DWIDTH 9 0
BBX 9 10 0 4
BITMAP
1400
1400
1400
1400
1400
1780
F780
0000
0000
FF80
ENDCHAR
STARTCHAR 256A
ENCODING 9578
SWIDTH 540 0
DWIDTH 9 0
BBX 9 17 0 -3
BITMAP
1000
1000
1000
1000
1000
1F80
FF80
1000
1000
FF80
1000
1000
1000
1000
1000
1000
1000
ENDCHAR
STARTCHAR 256B
ENCODING 9579
SWIDTH 540 0
DWIDTH 9 0
BBX 9 17 0 -3
BITMAP
1400
1400
1400
1400
1400
1400
1400
1400
1400
FF80
1400
1400
1400
1400
1400
1400
1400
ENDCHAR
STARTCHAR 256C
ENCODING 9580
SWIDTH 540 0
DWIDTH 9 0
BBX 9 17 0 -3
BITMAP
1400
1400
1400
1400
1400
1780
F780
0000
0000
F780
1400
1400
1400
1400
1400
1400
1400
ENDCHAR
STARTCHAR 2580
ENCODING 9600
SWIDTH 540 0
DWIDTH 9 0
BBX 9 9 0 5
BITMAP
FF80
FF80
FF80
FF80
FF80
FF80
FF80
FF80
FF80
ENDCHAR
STARTCHAR 2584
ENCODING 9604
SWIDTH 540 0
DWIDTH 9 0
BBX 9 8 0 -3
BITMAP
FF80
FF80
FF80
FF80
FF80
FF80
FF80
FF80
ENDCHAR
STARTCHAR 2588
ENCODING 9608
SWIDTH 540 0
DWIDTH 9 0
BBX 9 17 0 -3
BITMAP
FF80
FF80
FF80
FF80
FF80
FF80
FF80
FF80
FF80
FF80
FF80
FF80
FF80
FF80
FF80
FF80
FF80
ENDCHAR
STARTCHAR 258C
ENCODING 9612
SWIDTH 540 0
DWIDTH 9 0
BBX 4 17 0 -3
BITMAP
F0
F0
F0
F0
F0
F0
F0
F0
F0
F0
F0
F0
F0
F0
F0
F0
F0
ENDCHAR
STARTCHAR 2590
ENCODING 9616
SWIDTH 540 0
DWIDTH 9 0
BBX 5 17 4 -3
BITMAP
F8
F8
F8
F8
F8
F8
F8
F8
F8
F8
F8
F8
F8
F8
F8
F8
F8
ENDCHAR
STARTCHAR 2591
ENCODING 9617
SWIDTH 540 0
DWIDTH 9 0
BBX 7 17 0 -3
BITMAP
22
22
88
88
22
22
22
88
88
22
22
88
88
22
22
88
88
ENDCHAR
STARTCHAR 2592
ENCODING 9618
SWIDTH 540 0
DWIDTH 9 0
BBX 9 17 0 -3
BITMAP
5580
5580
AA00
AA00
5580
5580
5580
AA00
AA00
5580
5580
AA00
AA00
5580
5580
AA00
AA00
ENDCHAR
STARTCHAR 2593
ENCODING 9619
SWIDTH 540 0
DWIDTH 9 0
BBX 9 17 0 -3
BITMAP
DB80
DB80
7780
7780
DB80
DB80
DB80
EE00
EE00
DB80
DB80
7780
7780
DB80
DB80
EE00
EE00
ENDCHAR
STARTCHAR 25A0
ENCODING 9632
SWIDTH 540 0
DWIDTH 9 0
BBX 4 7 2 3
BITMAP
F0
F0
F0
F0
F0
F0
F0
ENDCHAR
STARTCHAR 25AC
ENCODING 9644
SWIDTH 540 0
DWIDTH 9 0
BBX 6 5 1 0
BITMAP
FC
FC
FC
FC
FC
ENDCHAR
STARTCHAR 25B2
ENCODING 9650
SWIDTH 540 0
DWIDTH 9 0
BBX 7 8 0 2
BITMAP
10
10
10
38
38
7C
7C
FE
ENDCHAR
STARTCHAR 25BA
ENCODING 9658
SWIDTH 540 0
DWIDTH 9 0
BBX 7 8 0 2
BITMAP
80
E0
E0
F8
FE
F8
E0
80
ENDCHAR
STARTCHAR 25BC
ENCODING 9660
SWIDTH 540 0
DWIDTH 9 0
BBX 7 8 0 2
BITMAP
FE
FC
7C
7C
38
38
10
10
ENDCHAR
STARTCHAR 25C4
ENCODING 9668
SWIDTH 540 0
DWIDTH 9 0
BBX 7 8 0 2
BITMAP
02
02
0E
3E
FE
3E
0E
02
ENDCHAR
STARTCHAR 25CB
ENCODING 9675
SWIDTH 540 0
DWIDTH 9 0
BBX 6 10 1 1
BITMAP
78
48
4C
CC
84
84
84
CC
48
78
ENDCHAR
STARTCHAR 25D8
ENCODING 9688
SWIDTH 540 0
DWIDTH 9 0
BBX 9 17 0 -3
BITMAP
FF80
FF80
FF80
FF80
E780
C780
C380
C380
C380
C380
E780
FF80
FF80
FF80
FF80
FF80
FF80
ENDCHAR
STARTCHAR 25D9
ENCODING 9689
SWIDTH 540 0
DWIDTH 9 0
BBX 9 17 0 -3
BITMAP
FF80
FF80
FF80
C380
DB80
9B80
9980
BD80
BD80
BD80
9980
DB80
C380
FF80
FF80
FF80
FF80
ENDCHAR
STARTCHAR 263A
ENCODING 9786
SWIDTH 540 0
DWIDTH 9 0
BBX 9 14 0 -1
BITMAP
3C00
4200
8180
8180
A580
A580
A580
8180
8180
A580
9980
8180
4200
3C00
ENDCHAR
STARTCHAR 263B
ENCODING 9787
SWIDTH 540 0
DWIDTH 9 0
BBX 9 14 0 -1
BITMAP
3C00
7E00
FF80
FF80
DB80
DB80
DB80
FF80
FF80
DB80
E780
FF80
7E00
3C00
ENDCHAR
STARTCHAR 263C
ENCODING 9788
SWIDTH 540 0
DWIDTH 9 0
BBX 7 14 0 -1
BITMAP
10
92
BA
44
44
44
44
C6
44
44
44
BA
92
10
ENDCHAR
STARTCHAR 2640
ENCODING 9792
SWIDTH 540 0
DWIDTH 9 0
BBX 5 12 1 0
BITMAP
70
88
88
88
88
88
70
20
20
F8
20
20
ENDCHAR
STARTCHAR 2642
ENCODING 9794
SWIDTH 540 0
DWIDTH 9 0
BBX 7 12 0 0
BITMAP
1E
06
0A
0A
0A
10
70
88
88
88
88
70
ENDCHAR
STARTCHAR 2660
ENCODING 9824
SWIDTH 540 0
DWIDTH 9 0
BBX 7 12 0 0
BITMAP
10
38
38
3C
7C
7C
FE
FE
D6
10
10
38
ENDCHAR
STARTCHAR 2663
ENCODING 9827
SWIDTH 540 0
DWIDTH 9 0
BBX 7 12 0 0
BITMAP
38
38
38
30
10
D6
FE
FE
D6
10
10
38
ENDCHAR
STARTCHAR 2665
ENCODING 9829
SWIDTH 540 0
DWIDTH 9 0
BBX 7 12 0 0
BITMAP
6C
EE
FE
FE
FE
FE
7C
7C
38
38
10
10
ENDCHAR
STARTCHAR 2666
ENCODING 9830
SWIDTH 540 0
DWIDTH 9 0
BBX 7 12 0 0
BITMAP
10
38
38
3C
7C
7C
FE
7C
7C
38
38
10
ENDCHAR
STARTCHAR 266A
ENCODING 9834
SWIDTH 540 0
DWIDTH 9 0
BBX 7 12 0 0
BITMAP
10
18
14
14
14
12
12
10
10
70
F0
E0
ENDCHAR
STARTCHAR 266B
ENCODING 9835
SWIDTH 540 0
DWIDTH 9 0
BBX 7 14 0 -1
BITMAP
20
30
2C
22
32
32
2E
22
22
E2
C2
02
0E
0C
ENDCHAR
ENDFONT
